<svg width="40" height="40" viewBox="0 0 40 40" fill="none" xmlns="http://www.w3.org/2000/svg">
<path d="M10.5469 22.2857L12.2344 16.8095L7.78125 13.2857H13.2188L15 7.61905L16.7344 13.2857H22.2188L17.7656 16.8095L19.4062 22.2857L15 18.9048L10.5469 22.2857ZM3.9375 40V25.5238C2.53125 24.0317 1.52344 22.3968 0.914062 20.619C0.304688 18.8413 0 17.0476 0 15.2381C0 10.9206 1.4375 7.30159 4.3125 4.38095C7.1875 1.46032 10.75 0 15 0C19.25 0 22.8125 1.46032 25.6875 4.38095C28.5625 7.30159 30 10.9206 30 15.2381C30 17.0476 29.6953 18.8413 29.0859 20.619C28.4766 22.3968 27.4688 24.0317 26.0625 25.5238V40L15 36.2381L3.9375 40ZM15 27.619C18.4062 27.619 21.2891 26.4206 23.6484 24.0238C26.0078 21.627 27.1875 18.6984 27.1875 15.2381C27.1875 11.7778 26.0078 8.84921 23.6484 6.45238C21.2891 4.05556 18.4062 2.85714 15 2.85714C11.5938 2.85714 8.71094 4.05556 6.35156 6.45238C3.99219 8.84921 2.8125 11.7778 2.8125 15.2381C2.8125 18.6984 3.99219 21.627 6.35156 24.0238C8.71094 26.4206 11.5938 27.619 15 27.619ZM6.75 36L15 33.381L23.25 36V27.8571C22 28.7778 20.6562 29.4444 19.2188 29.8571C17.7813 30.2698 16.375 30.4762 15 30.4762C13.625 30.4762 12.2187 30.2698 10.7812 29.8571C9.34375 29.4444 8 28.7778 6.75 27.8571V36Z" fill="url(#paint0_linear_219_5)"/>
<defs>
<linearGradient id="paint0_linear_219_5" x1="15" y1="0" x2="15" y2="40" gradientUnits="userSpaceOnUse">
<stop stop-color="#D41E29"/>
<stop offset="1" stop-color="#F36022"/>
</linearGradient>
</defs>
</svg>
