<svg width="39" height="39" viewBox="0 0 39 39" fill="none" xmlns="http://www.w3.org/2000/svg">
<path d="M27.95 21.3L17.3 10.65L27.95 0L38.6 10.65L27.95 21.3ZM0 17.7V2.65H15.05V17.7H0ZM20.9 38.6V23.55H35.95V38.6H20.9ZM0 38.6V23.55H15.05V31.075V38.6H0ZM3 14.7H12.05V5.65H3V14.7ZM28.1 17.25L34.55 10.8L28.1 4.35L21.65 10.8L28.1 17.25ZM23.9 35.6H32.95V26.55H23.9V35.6ZM3 35.6H12.05V26.55H3V35.6Z" fill="url(#paint0_linear_38_91)"/>
<defs>
<linearGradient id="paint0_linear_38_91" x1="19.3" y1="0" x2="19.3" y2="38.6" gradientUnits="userSpaceOnUse">
<stop stop-color="#D41E29"/>
<stop offset="1" stop-color="#F36022"/>
</linearGradient>
</defs>
</svg>
