<svg width="104" height="104" viewBox="0 0 104 104" fill="none" xmlns="http://www.w3.org/2000/svg">
<path d="M48.23 89.31H55.38V82.55C60.6667 81.9433 64.7833 80.3183 67.73 77.675C70.6767 75.0317 72.15 71.5 72.15 67.08C72.15 62.66 70.8933 59.0633 68.38 56.29C65.8667 53.5167 61.62 50.8733 55.64 48.36C50.6133 46.28 46.9733 44.4167 44.72 42.77C42.4667 41.1233 41.34 38.9133 41.34 36.14C41.34 33.4533 42.315 31.33 44.265 29.77C46.215 28.21 48.88 27.43 52.26 27.43C54.86 27.43 57.1133 28.0367 59.02 29.25C60.9267 30.4633 62.53 32.2833 63.83 34.71L70.07 31.72C68.5967 28.6867 66.6467 26.3033 64.22 24.57C61.7933 22.8367 58.9333 21.7967 55.64 21.45V14.82H48.49V21.45C44.07 22.0567 40.5817 23.6817 38.025 26.325C35.4683 28.9683 34.19 32.24 34.19 36.14C34.19 40.3867 35.49 43.7667 38.09 46.28C40.69 48.7933 44.59 51.1333 49.79 53.3C55.5967 55.7267 59.5833 57.915 61.75 59.865C63.9167 61.815 65 64.22 65 67.08C65 69.8533 63.8517 72.085 61.555 73.775C59.2583 75.465 56.3767 76.31 52.91 76.31C49.53 76.31 46.5183 75.3567 43.875 73.45C41.2317 71.5433 39.39 68.9433 38.35 65.65L31.72 67.86C33.54 71.8467 35.7717 74.9883 38.415 77.285C41.0583 79.5817 44.33 81.25 48.23 82.29V89.31ZM52 104C44.8933 104 38.1767 102.635 31.85 99.905C25.5233 97.175 19.9983 93.4483 15.275 88.725C10.5517 84.0017 6.825 78.4767 4.095 72.15C1.365 65.8233 0 59.1067 0 52C0 44.8067 1.365 38.0467 4.095 31.72C6.825 25.3933 10.5517 19.89 15.275 15.21C19.9983 10.53 25.5233 6.825 31.85 4.095C38.1767 1.365 44.8933 0 52 0C59.1933 0 65.9533 1.365 72.28 4.095C78.6067 6.825 84.11 10.53 88.79 15.21C93.47 19.89 97.175 25.3933 99.905 31.72C102.635 38.0467 104 44.8067 104 52C104 59.1067 102.635 65.8233 99.905 72.15C97.175 78.4767 93.47 84.0017 88.79 88.725C84.11 93.4483 78.6067 97.175 72.28 99.905C65.9533 102.635 59.1933 104 52 104ZM52 96.2C64.3067 96.2 74.75 91.8883 83.33 83.265C91.91 74.6417 96.2 64.22 96.2 52C96.2 39.6933 91.91 29.25 83.33 20.67C74.75 12.09 64.3067 7.8 52 7.8C39.78 7.8 29.3583 12.09 20.735 20.67C12.1117 29.25 7.8 39.6933 7.8 52C7.8 64.22 12.1117 74.6417 20.735 83.265C29.3583 91.8883 39.78 96.2 52 96.2Z" fill="url(#paint0_radial_14_22)"/>
<defs>
<radialGradient id="paint0_radial_14_22" cx="0" cy="0" r="1" gradientUnits="userSpaceOnUse" gradientTransform="translate(22.5 16) rotate(40.3207) scale(99.6807 167.113)">
<stop offset="0.409375" stop-color="#6965B0"/>
<stop offset="1" stop-color="#11559D"/>
</radialGradient>
</defs>
</svg>
