<svg width="45" height="46" viewBox="0 0 45 46" fill="none" xmlns="http://www.w3.org/2000/svg">
<path d="M15 46C14.069 46 13.25 45.7725 12.5431 45.3175C11.8362 44.8625 11.3793 44.2325 11.1724 43.4275H10.4483C9.62072 43.4275 8.89658 43.1125 8.27589 42.4825C7.6552 41.8525 7.34485 41.1174 7.34485 40.2774V32.7699C5.06898 31.2649 3.27587 29.3399 1.96552 26.9949C0.655176 24.6499 0 22.06 0 19.225C0 14.99 1.4569 11.3938 4.3707 8.43628C7.2845 5.47878 10.8276 4 15 4C19.1725 4 22.7155 5.47878 25.6293 8.43628C28.5431 11.3938 30 14.99 30 19.225C30 22.06 29.3448 24.6499 28.0345 26.9949C26.7241 29.3399 24.931 31.2649 22.6552 32.7699V40.2774C22.6552 41.1174 22.3449 41.8525 21.7242 42.4825C21.1035 43.1125 20.3793 43.4275 19.5517 43.4275H18.8276C18.6207 44.2325 18.1638 44.8625 17.4569 45.3175C16.75 45.7725 15.9311 46 15 46ZM10.4483 40.2774H19.5517V37.9674H10.4483V40.2774ZM10.4483 35.8674H19.5517V33.7674H10.4483V35.8674ZM9.98279 30.6174H13.8104V23.4249L9.05175 18.595L10.6552 16.9675L15 21.3775L19.3449 16.9675L20.9483 18.595L16.1897 23.4249V30.6174H20.0173C22.0862 29.6374 23.75 28.1149 25.0086 26.0499C26.2672 23.9849 26.8965 21.71 26.8965 19.225C26.8965 15.83 25.75 12.9688 23.4569 10.6413C21.1638 8.31378 18.3449 7.15002 15 7.15002C11.6552 7.15002 8.83624 8.31378 6.54313 10.6413C4.25002 12.9688 3.10346 15.83 3.10346 19.225C3.10346 21.71 3.73277 23.9849 4.9914 26.0499C6.25002 28.1149 7.91382 29.6374 9.98279 30.6174Z" fill="url(#paint0_linear_38_119)"/>
<path d="M40.2008 17.15L41.3508 19.65L42.5008 17.15L45.0008 16L42.5008 14.85L41.3508 12.35L40.2008 14.85L37.7008 16L40.2008 17.15Z" fill="url(#paint1_linear_38_119)"/>
<path d="M33.2508 7.2L35.0008 10.9L36.7508 7.2L40.4508 5.45L36.7508 3.7L35.0008 0L33.2508 3.7L29.5508 5.45L33.2508 7.2Z" fill="url(#paint2_linear_38_119)"/>
<defs>
<linearGradient id="paint0_linear_38_119" x1="22.5004" y1="0" x2="22.5004" y2="46" gradientUnits="userSpaceOnUse">
<stop stop-color="#D41E29"/>
<stop offset="1" stop-color="#F36022"/>
</linearGradient>
<linearGradient id="paint1_linear_38_119" x1="22.5004" y1="0" x2="22.5004" y2="46" gradientUnits="userSpaceOnUse">
<stop stop-color="#D41E29"/>
<stop offset="1" stop-color="#F36022"/>
</linearGradient>
<linearGradient id="paint2_linear_38_119" x1="22.5004" y1="0" x2="22.5004" y2="46" gradientUnits="userSpaceOnUse">
<stop stop-color="#D41E29"/>
<stop offset="1" stop-color="#F36022"/>
</linearGradient>
</defs>
</svg>
