<svg width="114" height="110" viewBox="0 0 114 110" fill="none" xmlns="http://www.w3.org/2000/svg">
<path d="M39.6409 110L29.7955 92.9762L10.2341 88.9167L12.4364 69.6667L0 55L12.4364 40.4643L10.2341 21.2143L29.7955 17.1548L39.6409 0L57 8.11905L74.3591 0L84.3341 17.1548L103.766 21.2143L101.564 40.4643L114 55L101.564 69.6667L103.766 88.9167L84.3341 92.9762L74.3591 110L57 101.881L39.6409 110ZM43.1386 99.6548L57 93.7619L71.25 99.6548L79.9295 86.5595L95.0864 82.631L93.5318 67.0476L104.025 55L93.5318 42.6905L95.0864 27.1071L79.9295 23.4405L70.9909 10.3452L57 16.2381L42.75 10.3452L34.0705 23.4405L18.9136 27.1071L20.4682 42.6905L9.975 55L20.4682 67.0476L18.9136 82.8929L34.0705 86.5595L43.1386 99.6548ZM51.4295 72.4167L80.8364 42.9524L75.0068 37.5833L51.4295 61.1548L39.1227 48.1905L33.1636 54.0833L51.4295 72.4167Z" fill="url(#paint0_radial_14_23)"/>
<defs>
<radialGradient id="paint0_radial_14_23" cx="0" cy="0" r="1" gradientUnits="userSpaceOnUse" gradientTransform="translate(35.5 9.5) rotate(62.1945) scale(113.619 117.75)">
<stop offset="0.409375" stop-color="#FFA718"/>
<stop offset="1" stop-color="#FFDE00"/>
</radialGradient>
</defs>
</svg>
